<?xml version="1.0" standalone="no"?><!DOCTYPE svg PUBLIC "-//W3C//DTD SVG 1.1//EN" "http://www.w3.org/Graphics/SVG/1.1/DTD/svg11.dtd"><svg t="1754912140897" class="icon" viewBox="0 0 1024 1024" version="1.1" xmlns="http://www.w3.org/2000/svg" p-id="1983" xmlns:xlink="http://www.w3.org/1999/xlink" width="200" height="200"><path d="M382.550943 154.566038c21.639245 0 32.458868 0 40.728151 4.211924a38.66083 38.66083 0 0 1 16.88634 16.88634C444.377358 183.923925 444.377358 194.753208 444.377358 216.392453v581.554717c0 21.639245 0 32.458868-4.202264 40.728151a38.66083 38.66083 0 0 1-16.896 16.886339C415.019472 859.773585 404.190189 859.773585 382.550943 859.773585h-59.894339c-21.639245 0-32.458868 0-40.728151-4.211925a38.66083 38.66083 0 0 1-16.88634-16.886339C260.830189 830.415698 260.830189 819.586415 260.830189 797.94717V216.392453c0-21.639245 0-32.458868 4.211924-40.728151a38.66083 38.66083 0 0 1 16.88634-16.88634C290.188075 154.566038 301.017358 154.566038 322.656604 154.566038h59.894339z m318.792453 0c21.639245 0 32.458868 0 40.728151 4.211924a38.66083 38.66083 0 0 1 16.88634 16.88634C763.169811 183.923925 763.169811 194.753208 763.169811 216.392453v581.554717c0 21.639245 0 32.458868-4.211924 40.728151a38.66083 38.66083 0 0 1-16.88634 16.886339C733.811925 859.773585 722.982642 859.773585 701.343396 859.773585h-59.894339c-21.639245 0-32.458868 0-40.728151-4.211925a38.66083 38.66083 0 0 1-16.88634-16.886339C579.622642 830.415698 579.622642 819.586415 579.622642 797.94717V216.392453c0-21.639245 0-32.458868 4.202264-40.728151a38.66083 38.66083 0 0 1 16.896-16.88634C608.980528 154.566038 619.809811 154.566038 641.449057 154.566038h59.894339z" p-id="1984"></path></svg>