<?xml version="1.0" encoding="UTF-8"?>
<svg version="1.1" xmlns="http://www.w3.org/2000/svg" width="512" height="512">
<path d="M0 0 C3.9323173 2.65202795 6.18648186 5.30944559 7.6875 9.8125 C7.78324884 12.01062909 7.81666252 14.21161954 7.81892776 16.41183186 C7.8209804 17.08884528 7.82303303 17.76585871 7.82514787 18.4633877 C7.83083491 20.74842172 7.82935853 23.03339579 7.82794189 25.31843567 C7.83052455 26.96666953 7.83353743 28.61490277 7.8369453 30.26313514 C7.84503018 34.80540606 7.84680569 39.3476612 7.84754276 43.88993847 C7.84939072 48.78371108 7.85693673 53.67747543 7.86367798 58.57124329 C7.87727213 69.2777375 7.88328763 79.98422797 7.88768864 90.69072938 C7.89044909 97.37258817 7.89468606 104.05444552 7.89919281 110.73630333 C7.91138662 129.22706543 7.92168589 147.71782638 7.9250679 166.20859241 C7.92539725 167.98448706 7.92539725 167.98448706 7.92573325 169.79625837 C7.92595153 170.98306051 7.92616981 172.16986265 7.9263947 173.39262849 C7.92683817 175.797641 7.92728473 178.20265351 7.92773438 180.60766602 C7.92806652 182.39712933 7.92806652 182.39712933 7.92840537 184.22274341 C7.93235468 203.55989733 7.94981227 222.89701359 7.9730939 242.23415295 C7.99678974 262.07503613 8.00926894 281.9159004 8.01043582 301.75679797 C8.01135355 312.9017016 8.01713045 324.04655616 8.03525543 335.1914463 C8.05063254 344.68029819 8.05579102 354.16908585 8.04751733 363.65794782 C8.04360241 368.50117266 8.04458138 373.34426808 8.05857468 378.18747711 C8.07126314 382.61951019 8.07016077 387.05131591 8.05798396 391.48334845 C8.05601817 393.08833688 8.05914588 394.69334113 8.06782833 396.29830728 C8.0788736 398.47769706 8.07146673 400.65627774 8.0594368 402.83564472 C8.06003389 404.04684524 8.06063097 405.25804576 8.06124616 406.50594932 C7.49795876 411.48938066 5.85542314 414.7321711 2.1875 418.125 C-2.45220693 421.25680218 -6.88820618 421.60243811 -12.3125 420.8125 C-19.65843706 417.39024951 -25.01865547 411.27567832 -30.36165047 405.36730385 C-32.38272096 403.13298844 -34.42513412 400.91857654 -36.46619987 398.70253718 C-37.56501762 397.50932263 -38.66281469 396.31516741 -39.75964546 395.12012613 C-46.8714978 387.38001528 -54.13236574 379.78064726 -61.38747883 372.1750778 C-68.41872199 364.80296811 -75.39693426 357.39556991 -82.22802734 349.8371582 C-112.49505514 313.96889455 -112.49505514 313.96889455 -154.44783783 297.93695927 C-164.07776327 297.66068298 -173.74035271 298.32601842 -183.23454285 299.98465157 C-188.83175645 300.9210982 -192.48726501 300.99856804 -197.56415558 298.32145977 C-201.09403888 295.27489078 -203.10079352 292.18004227 -203.81586456 287.56095886 C-203.81737267 286.37963882 -203.81888077 285.19831879 -203.82043457 283.98120117 C-203.82667453 283.31877254 -203.8329145 282.6563439 -203.83934355 281.97384167 C-203.85522272 279.76734884 -203.84269059 277.56196859 -203.83007812 275.35546875 C-203.83550155 273.7682735 -203.84262545 272.18108329 -203.85131836 270.59390259 C-203.86952857 266.29221337 -203.86249381 261.99090859 -203.84980202 257.6892128 C-203.83966238 253.18366727 -203.84907037 248.67815427 -203.85534668 244.17260742 C-203.86262028 236.60687359 -203.85304294 229.04129603 -203.83398438 221.47558594 C-203.81221615 212.73335973 -203.81926772 203.99150668 -203.84129 195.24928951 C-203.8594522 187.73827645 -203.86199832 180.22737562 -203.85153532 172.71634769 C-203.84530489 168.23257901 -203.84445233 163.74898563 -203.85768127 159.26522827 C-203.86925114 155.04944804 -203.86119357 150.83414809 -203.83810425 146.61841965 C-203.83282318 145.0728879 -203.83432067 143.5273156 -203.84315491 141.98180008 C-203.85411883 139.86859066 -203.84033972 137.75691126 -203.82043457 135.64379883 C-203.81892647 134.46247879 -203.81741837 133.28115875 -203.81586456 132.06404114 C-203.1022443 127.4543292 -201.10309434 124.35600064 -197.57721043 121.31667233 C-191.46724623 118.11136114 -186.45030645 118.89214661 -179.78295898 119.80493164 C-158.86633578 121.8589499 -138.25063699 123.18599039 -121.14111328 109.21435547 C-109.70476104 99.6166769 -99.64679321 88.38582329 -89.79028642 77.21069682 C-84.83648822 71.60586887 -79.71684842 66.16350062 -74.57956326 60.72723281 C-68.31054604 54.09247864 -62.06274507 47.44192219 -55.95143127 40.66123962 C-55.10998062 39.72854752 -54.26852997 38.79585541 -53.40158081 37.8348999 C-51.83027845 36.08667674 -50.26386565 34.33404244 -48.70314026 32.57637024 C-48.01707703 31.81212738 -47.33101379 31.04788452 -46.62416077 30.26048279 C-46.02897172 29.59071631 -45.43378267 28.92094984 -44.82055759 28.23088741 C-43.3125 26.8125 -43.3125 26.8125 -41.3125 26.8125 C-40.9825 25.8225 -40.6525 24.8325 -40.3125 23.8125 C-39.6525 23.8125 -38.9925 23.8125 -38.3125 23.8125 C-37.9825 22.8225 -37.6525 21.8325 -37.3125 20.8125 C-36.6525 20.8125 -35.9925 20.8125 -35.3125 20.8125 C-34.9825 19.8225 -34.6525 18.8325 -34.3125 17.8125 C-33.6525 17.8125 -32.9925 17.8125 -32.3125 17.8125 C-31.9825 16.8225 -31.6525 15.8325 -31.3125 14.8125 C-30.6525 14.8125 -29.9925 14.8125 -29.3125 14.8125 C-28.9825 13.8225 -28.6525 12.8325 -28.3125 11.8125 C-27.6525 11.8125 -26.9925 11.8125 -26.3125 11.8125 C-26.07402344 11.23886719 -25.83554688 10.66523437 -25.58984375 10.07421875 C-24.04740626 7.34311383 -22.23183918 5.68771803 -19.875 3.625 C-19.09253906 2.93019531 -18.31007812 2.23539063 -17.50390625 1.51953125 C-12.42202683 -2.43908071 -5.82974214 -2.08990756 0 0 Z " fill="#000000" transform="translate(203.3125,46.1875)"/>
<path d="" fill="#000000" transform="translate(0,0)"/>
</svg>
