<?xml version="1.0" encoding="UTF-8"?>
<svg version="1.1" xmlns="http://www.w3.org/2000/svg" width="512" height="512">
<path d="M0 0 C3.9323173 2.65202795 6.18648186 5.30944559 7.6875 9.8125 C7.78324884 12.01062909 7.81666252 14.21161954 7.81892776 16.41183186 C7.8209804 17.08884528 7.82303303 17.76585871 7.82514787 18.4633877 C7.83083491 20.74842172 7.82935853 23.03339579 7.82794189 25.31843567 C7.83052455 26.96666953 7.83353743 28.61490277 7.8369453 30.26313514 C7.84503018 34.80540606 7.84680569 39.3476612 7.84754276 43.88993847 C7.84939072 48.78371108 7.85693673 53.67747543 7.86367798 58.57124329 C7.87727213 69.2777375 7.88328763 79.98422797 7.88768864 90.69072938 C7.89044909 97.37258817 7.89468606 104.05444552 7.89919281 110.73630333 C7.91138662 129.22706543 7.92168589 147.71782638 7.9250679 166.20859241 C7.92539725 167.98448706 7.92539725 167.98448706 7.92573325 169.79625837 C7.92595153 170.98306051 7.92616981 172.16986265 7.9263947 173.39262849 C7.92683817 175.797641 7.92728473 178.20265351 7.92773438 180.60766602 C7.92806652 182.39712933 7.92806652 182.39712933 7.92840537 184.22274341 C7.93235468 203.55989733 7.94981227 222.89701359 7.9730939 242.23415295 C7.99678974 262.07503613 8.00926894 281.9159004 8.01043582 301.75679797 C8.01135355 312.9017016 8.01713045 324.04655616 8.03525543 335.1914463 C8.05063254 344.68029819 8.05579102 354.16908585 8.04751733 363.65794782 C8.04360241 368.50117266 8.04458138 373.34426808 8.05857468 378.18747711 C8.07126314 382.61951019 8.07016077 387.05131591 8.05798396 391.48334845 C8.05601817 393.08833688 8.05914588 394.69334113 8.06782833 396.29830728 C8.0788736 398.47769706 8.07146673 400.65627774 8.0594368 402.83564472 C8.06003389 404.04684524 8.06063097 405.25804576 8.06124616 406.50594932 C7.49795876 411.48938066 5.85542314 414.7321711 2.1875 418.125 C-2.45220693 421.25680218 -6.88820618 421.60243811 -12.3125 420.8125 C-19.65843706 417.39024951 -25.01865547 411.27567832 -30.36165047 405.36730385 C-32.38272096 403.13298844 -34.42513412 400.91857654 -36.46619987 398.70253718 C-37.56501762 397.50932263 -38.66281469 396.31516741 -39.75964546 395.12012613 C-46.8714978 387.38001528 -54.13236574 379.78064726 -61.38747883 372.1750778 C-68.41872199 364.80296811 -75.39693426 357.39556991 -82.22802734 349.8371582 C-112.49505514 313.96889455 -112.49505514 313.96889455 -154.44783783 297.93695927 C-164.07776327 297.66068298 -173.74035271 298.32601842 -183.23454285 299.98465157 C-188.83175645 300.9210982 -192.48726501 300.99856804 -197.56415558 298.32145977 C-201.09403888 295.27489078 -203.10079352 292.18004227 -203.81586456 287.56095886 C-203.81737267 286.37963882 -203.81888077 285.19831879 -203.82043457 283.98120117 C-203.82667453 283.31877254 -203.8329145 282.6563439 -203.83934355 281.97384167 C-203.85522272 279.76734884 -203.84269059 277.56196859 -203.83007812 275.35546875 C-203.83550155 273.7682735 -203.84262545 272.18108329 -203.85131836 270.59390259 C-203.86952857 266.29221337 -203.86249381 261.99090859 -203.84980202 257.6892128 C-203.83966238 253.18366727 -203.84907037 248.67815427 -203.85534668 244.17260742 C-203.86262028 236.60687359 -203.85304294 229.04129603 -203.83398438 221.47558594 C-203.81221615 212.73335973 -203.81926772 203.99150668 -203.84129 195.24928951 C-203.8594522 187.73827645 -203.86199832 180.22737562 -203.85153532 172.71634769 C-203.84530489 168.23257901 -203.84445233 163.74898563 -203.85768127 159.26522827 C-203.86925114 155.04944804 -203.86119357 150.83414809 -203.83810425 146.61841965 C-203.83282318 145.0728879 -203.83432067 143.5273156 -203.84315491 141.98180008 C-203.85411883 139.86859066 -203.84033972 137.75691126 -203.82043457 135.64379883 C-203.81892647 134.46247879 -203.81741837 133.28115875 -203.81586456 132.06404114 C-203.1022443 127.4543292 -201.10309434 124.35600064 -197.57721043 121.31667233 C-191.46724623 118.11136114 -186.45030645 118.89214661 -179.78295898 119.80493164 C-158.86633578 121.8589499 -138.25063699 123.18599039 -121.14111328 109.21435547 C-109.70476104 99.6166769 -99.64679321 88.38582329 -89.79028642 77.21069682 C-84.83648822 71.60586887 -79.71684842 66.16350062 -74.57956326 60.72723281 C-68.31054604 54.09247864 -62.06274507 47.44192219 -55.95143127 40.66123962 C-55.10998062 39.72854752 -54.26852997 38.79585541 -53.40158081 37.8348999 C-51.83027845 36.08667674 -50.26386565 34.33404244 -48.70314026 32.57637024 C-48.01707703 31.81212738 -47.33101379 31.04788452 -46.62416077 30.26048279 C-46.02897172 29.59071631 -45.43378267 28.92094984 -44.82055759 28.23088741 C-43.3125 26.8125 -43.3125 26.8125 -41.3125 26.8125 C-40.9825 25.8225 -40.6525 24.8325 -40.3125 23.8125 C-39.6525 23.8125 -38.9925 23.8125 -38.3125 23.8125 C-37.9825 22.8225 -37.6525 21.8325 -37.3125 20.8125 C-36.6525 20.8125 -35.9925 20.8125 -35.3125 20.8125 C-34.9825 19.8225 -34.6525 18.8325 -34.3125 17.8125 C-33.6525 17.8125 -32.9925 17.8125 -32.3125 17.8125 C-31.9825 16.8225 -31.6525 15.8325 -31.3125 14.8125 C-30.6525 14.8125 -29.9925 14.8125 -29.3125 14.8125 C-28.9825 13.8225 -28.6525 12.8325 -28.3125 11.8125 C-27.6525 11.8125 -26.9925 11.8125 -26.3125 11.8125 C-26.07402344 11.23886719 -25.83554688 10.66523437 -25.58984375 10.07421875 C-24.04740626 7.34311383 -22.23183918 5.68771803 -19.875 3.625 C-19.09253906 2.93019531 -18.31007812 2.23539063 -17.50390625 1.51953125 C-12.42202683 -2.43908071 -5.82974214 -2.08990756 0 0 Z " fill="#000000" transform="translate(203.3125,46.1875)"/>
<path d="M0 0 C8.54651181 5.10991443 15.40025353 14.00376112 21.51171875 21.7109375 C23.19534495 23.83147165 24.8969679 25.91066086 26.64453125 27.9765625 C49.98540214 55.85701199 65.4796795 89.76206055 74.875 124.6875 C75.06932617 125.40566895 75.26365234 126.12383789 75.46386719 126.86376953 C81.00758753 147.75672603 83.10441712 169.24103217 83.125 190.8125 C83.12600708 191.55228088 83.12701416 192.29206177 83.12805176 193.05426025 C83.07518532 250.99431953 63.94706304 308.21153703 27.875 353.6875 C27.10542969 354.66976563 26.33585937 355.65203125 25.54296875 356.6640625 C5.77001473 381.38916176 5.77001473 381.38916176 -4.125 384.6875 C-11.82851248 385.33033757 -18.79806155 385.55548689 -25.125 380.6875 C-30.4923264 376.06767796 -33.02914615 370.64563999 -34.125 363.6875 C-34.31907735 355.63975934 -31.48652597 349.79766036 -26 343.9375 C-24.79537109 342.62845703 -24.79537109 342.62845703 -23.56640625 341.29296875 C-22.05992571 339.68525271 -20.54801625 338.08258035 -19.02734375 336.48828125 C-6.53376935 323.10731278 3.63816998 308.00150343 11.875 291.6875 C12.23819336 290.96820313 12.60138672 290.24890625 12.97558594 289.5078125 C38.90055258 237.51711018 43.02525117 177.77278192 25.0625 122.5 C15.20786736 93.4800266 -0.32188641 67.29222429 -21.2421875 44.9140625 C-23.125 42.6875 -23.125 42.6875 -24.1953125 40.4609375 C-25.05310773 38.32623934 -25.05310773 38.32623934 -28.125 37.6875 C-32.67546938 32.03388653 -34.50770348 26.38202987 -34 19.1875 C-32.87178351 11.73870705 -29.7588003 6.69422971 -24.00390625 1.9140625 C-17.22381516 -2.51202607 -7.48935722 -3.17871269 0 0 Z " fill="#000000" transform="translate(429.125,64.3125)"/>
<path d="M0 0 C34.53843167 27.2642424 55.61905386 77.44813662 61.22412109 119.82714844 C67.1107837 174.14369716 53.9175302 228.84752269 20.0625 272.1875 C0.13547688 296.34146742 0.13547688 296.34146742 -10 298 C-17.28761624 298.67477928 -23.27144612 296.80187521 -29.3125 292.8125 C-34.22560035 287.67088336 -36.70624449 281.81882166 -37.25 274.75 C-36.6679556 266.01933407 -32.80395413 261.22760041 -27 255 C3.65793258 220.91447247 16.83728759 179.45585595 15 134 C13.57813532 114.1900593 7.7353755 94.77197085 -1 77 C-1.54398437 75.88367188 -2.08796875 74.76734375 -2.6484375 73.6171875 C-9.19261949 60.86678598 -17.82129771 49.88537059 -27.23828125 39.15625 C-28.15930061 38.10455748 -29.07987946 37.05247899 -30 36 C-30.46865479 35.46624756 -30.93730957 34.93249512 -31.42016602 34.38256836 C-35.45749359 29.68679877 -36.74336297 25.77167992 -37.3125 19.625 C-36.73099872 12.87958513 -34.87266235 6.87266235 -30 2 C-20.68162629 -5.247624 -10.07220557 -6.08558434 0 0 Z " fill="#000000" transform="translate(352,109)"/>
<path d="M0 0 C23.95003001 17.50906367 39.36023483 53.05828386 43.85546875 81.41772461 C48.73706486 120.89327456 40.54458156 160.62289249 15.92333984 192.3996582 C14.47123865 194.22681933 13.00213195 196.03878863 11.52734375 197.84765625 C10.73199219 198.85054687 9.93664062 199.8534375 9.1171875 200.88671875 C3.75843769 207.29453598 -1.7795008 212.03662014 -10.26953125 213.24609375 C-17.33742233 213.49991304 -23.32721803 212.6969875 -28.671875 207.85546875 C-34.35694107 201.79275916 -37.02090941 196.65132547 -36.78125 188.27734375 C-35.84349029 180.89396981 -32.81230219 175.68465126 -27.3984375 170.74609375 C-23.51166253 166.91450626 -20.53515809 162.34433585 -17.47265625 157.84765625 C-16.93511719 157.06648437 -16.39757812 156.2853125 -15.84375 155.48046875 C-2.51259846 134.80500135 0.66857455 108.70652178 -3.59765625 84.78515625 C-7.77384319 67.65701626 -15.00514204 52.23254013 -27.34765625 39.47265625 C-33.16072509 33.39647822 -36.4588646 27.77005842 -36.97265625 19.28515625 C-36.57054209 12.16019599 -33.80646837 6.72980425 -28.59765625 1.91015625 C-20.14295281 -4.79155363 -9.39179912 -5.32647059 0 0 Z " fill="#000000" transform="translate(271.47265625,151.15234375)"/>
</svg>
